PathFileType	4	(X/Y/Z)	C:\Users\WrightLab\Desktop\Jo\P1_boxCal7.trc
DataRate	CameraRate	NumFrames	NumMarkers	Units	OrigDataRate	OrigDataStartFrame	OrigNumFrames
100.00	100.00	       8	19	mm	100.00	381	       609
Frame#	Time	Headset_Front			Headset_Back			Headset_Left			Headset_Right			Left_Shoulder			Right_Shoulder			Sternum			C7			Left Elbow			Right Elbow			Left Wrist			Right Wrist			Left ASIS			Right ASIS			S2			Left Knee			Right Knee			Left Ankle			Right Ankle			
		X1	Y1	Z1	X2	Y2	Z2	X3	Y3	Z3	X4	Y4	Z4	X5	Y5	Z5	X6	Y6	Z6	X7	Y7	Z7	X8	Y8	Z8	X9	Y9	Z9	X10	Y10	Z10	X11	Y11	Z11	X12	Y12	Z12	X13	Y13	Z13	X14	Y14	Z14	X15	Y15	Z15	X16	Y16	Z16	X17	Y17	Z17	X18	Y18	Z18	X19	Y19	Z19	

381	3.800				-104.98589	1535.89136	1368.97229	-66.13172	1464.62720	1518.79004				56.51684	1309.61841	1443.73474	-308.12256	1278.26135	1358.06262	-172.04295	1190.73560	1533.24158	-87.65220	1290.19971	1298.15967	170.17882	998.12714	1453.69775	-338.00494	1011.48254	1250.49133	262.68414	847.16437	1554.90002	-414.92691	785.42645	1225.36145	-46.81664	913.68793	1580.46777	-242.08601	902.67548	1533.48657	-74.63690	905.33002	1251.71375	95.99187	479.25391	1381.18054	-250.83281	480.78052	1533.10828	133.64134	190.69537	1154.55701	-214.52637	122.16343	1608.17163	
382	3.810	-292.97583	1438.47424	1482.94958				-70.14378	1465.19531	1526.55347				52.60657	1309.62744	1452.66309	-312.76071	1278.41296	1367.21277	-177.02431	1191.79944	1543.30017	-91.96341	1290.11536	1307.06665	163.17873	998.09802	1462.67297	-341.11728	1010.36102	1259.78125	254.90678	845.99323	1564.23438	-417.19324	784.79089	1235.80432	-51.33928	915.54004	1592.30713	-246.44881	903.72015	1545.66895	-78.61121	904.51117	1263.40381	95.20332	478.52823	1399.35278	-254.33199	479.79269	1544.85620	134.59644	196.11224	1164.73169	-218.51556	120.20929	1614.71118	
383	3.820	-297.58539	1440.65698	1492.10913				-74.01233	1465.91870	1534.57837				47.79660	1310.55640	1461.64209	-317.05203	1277.23816	1377.29077	-181.26376	1192.35425	1552.35327	-96.78740	1290.77612	1316.75452	159.50656	999.59717	1470.26160	-344.67715	1010.33990	1269.78284	247.19688	844.48633	1572.35498	-419.29611	783.15192	1246.52307	-56.24115	916.33490	1602.72351	-250.10931	904.47040	1556.01318	-83.05821	903.84790	1273.60852	95.25737	477.45245	1420.39246	-258.86139	479.32898	1554.57117	134.78273	202.59103	1178.47070	-222.20288	117.38177	1621.06445	
384	3.830	-300.91016	1440.90186	1498.43835				-78.31355	1466.00818	1542.71362				43.61742	1311.05359	1471.24500	-321.40622	1277.30554	1386.72363	-185.63882	1193.49133	1561.56653	-101.23344	1290.63770	1325.47156	150.83214	997.63995	1479.59216	-348.14716	1009.59088	1280.29626	239.50282	842.79657	1581.76416	-422.85721	782.72711	1256.98254	-60.40359	916.99146	1611.70654	-254.62659	905.25421	1566.30334	-86.59901	903.54242	1284.44360	94.97166	476.61081	1441.14832	-263.45923	479.46277	1563.50488	135.55011	208.54652	1191.44641	-225.76907	114.48209	1624.95483	
385	3.840	-305.53882	1442.62830	1506.94714	-259.71533	1402.54712	1640.09937	-82.72227	1467.60986	1551.37622				39.52829	1311.61938	1480.11304	-325.41812	1277.10925	1395.93164	-190.42256	1194.61877	1572.26611	-104.35940	1290.08606	1335.56335	146.95093	998.83612	1487.49902	-351.50146	1009.07306	1290.71863	231.79129	840.61279	1590.35938	-426.73645	782.42175	1268.41248	-65.44501	919.01520	1623.33118	-259.24417	906.88391	1577.77393	-89.98834	903.48889	1294.40283	94.99433	476.12485	1463.56970	-268.91846	479.38663	1569.17139	135.36095	214.51668	1207.44312	-229.59598	112.67814	1629.63770	
386	3.850	-310.15121	1442.56580	1515.66931	-264.09235	1404.18945	1648.28259	-86.67814	1467.71228	1559.17346				35.82732	1312.20667	1490.35571	-329.53607	1277.42993	1405.30701	-194.06897	1195.22485	1580.87524	-108.23975	1290.27490	1344.79675	140.00301	998.42456	1497.03064	-356.24280	1009.07690	1301.47595	223.94934	838.73004	1597.65759	-430.88446	782.29114	1279.84021	-70.53234	920.52539	1634.43994	-263.90887	908.04144	1587.72717	-93.18835	902.47522	1305.33484	95.84988	476.19681	1486.41895	-274.31647	481.48117	1579.27209	135.83704	220.44359	1225.33459	-230.95390	111.26069	1633.18140	
387	3.860				-268.83176	1406.04224	1656.70300	-91.11588	1468.65845	1567.58264				32.07860	1312.86035	1499.03894	-332.83969	1277.56433	1414.47803	-198.03023	1196.59314	1591.35608	-111.80708	1291.01062	1353.47791	134.66876	998.52802	1505.02661	-359.88260	1008.98145	1312.02576	216.45502	837.28723	1605.92188	-435.73001	781.42065	1290.98938	-75.71988	922.19202	1645.72949	-268.72424	908.58502	1597.16711	-96.70101	902.36780	1314.60474	95.39587	476.19180	1511.01379	-279.56503	483.16476	1587.39465	135.66719	228.04684	1244.07361	-230.55336	108.48109	1635.63806	
388	3.870				-273.35434	1407.09326	1665.25586	-95.55543	1470.48999	1576.52051				28.75902	1313.17847	1508.61572	-336.29907	1277.97241	1423.64563	-200.54608	1196.68750	1599.12268	-114.42381	1292.05688	1363.73901	129.16046	998.40106	1514.33936	-364.09891	1008.65015	1321.90955	209.66797	835.80756	1614.49939	-440.39944	781.54236	1302.95325	-81.04131	923.28101	1655.80273	-273.18295	909.94983	1606.91455	-99.37689	901.49933	1324.59851	93.95601	476.86853	1533.95081	-285.03165	484.15555	1594.73010	134.89561	235.41034	1264.72400	-229.72200	107.96095	1636.18298	
